<svg width="64" height="64" viewBox="0 0 64 64" fill="none" xmlns="http://www.w3.org/2000/svg">
<path d="M0 6.70157C0 3.0004 3.0004 0 6.70157 0H57.2984C60.9996 0 64 3.0004 64 6.70157V57.2984C64 60.9996 60.9996 64 57.2984 64H6.70157C3.0004 64 0 60.9996 0 57.2984V6.70157Z" fill="black"/>
<path d="M32.62 11.6944C41.4415 9.19989 50.6982 11.8983 50.6982 16.9647C50.6982 20.3115 46.9174 21.7371 44.3153 19.3724C38.1537 13.772 24.8882 19.5965 20.403 29.8708C13.553 45.5622 30.0207 55.9838 43.5827 44.54C45.565 42.8668 45.5706 42.7883 44.9636 42.8842C39.4282 43.7585 38.2955 40.7708 39.8978 39.3083C41.5499 37.8004 48.4189 35.4547 52.6691 36.6905C56.1614 39.3326 49.2993 53.1559 42.8608 56.449C39.1534 58.3453 37.6767 57.9659 39.8978 55.6875C40.5739 54.9942 41.6974 53.6475 42.3955 52.6951C43.6644 50.9629 43.6645 50.9629 42.2577 51.9693C32.1171 59.2232 19.4841 58.3815 13.6697 50.0635C4.76172 37.3194 14.9499 16.6909 32.62 11.6944Z" fill="white"/>
<path d="M28.7931 27.3636C32.0459 25.4312 35.483 30.3415 33.6125 34.2487C32.8938 35.7495 31.8786 36.4142 30.3268 36.4012C26.3136 36.3667 25.1529 29.526 28.7931 27.3636Z" fill="white"/>
<path d="M38.3598 24.2599C40.9973 23.1124 43.6246 25.3693 43.6246 28.7821C43.6245 33.119 39.1272 34.3763 37.0127 30.6306C35.7176 28.3366 36.3992 25.1125 38.3598 24.2599Z" fill="white"/>
<path d="M14.8206 7.17641C15.7488 6.02972 15.9436 6.08744 15.69 7.43394C15.4 8.97433 16.7753 10.8163 18.2195 10.8217C18.6738 10.8234 20.3485 10.3075 21.9413 9.67543C25.2136 8.37668 27.4251 8.10337 29.3065 8.76444C30.2844 9.10796 31.9253 10.2714 32.0496 10.6784C32.0637 10.7246 32.0372 10.7702 32.0005 10.8017C31.7642 11.005 31.3245 11.078 30.6161 11.2644L30.5745 11.2752C29.6225 11.5259 27.7725 12.0131 25.8009 13.1722C24.1719 14.13 22.396 15.5918 21.2892 16.1761C19.8072 16.9584 19.9369 16.9585 17.9996 16.9585C16.024 16.525 15.0928 15.8006 14.1802 13.9892C12.9898 11.6265 13.2223 9.15066 14.8206 7.17641Z" fill="white"/>
</svg>
